<svg width="110" height="31" viewBox="0 0 110 31" fill="none" xmlns="http://www.w3.org/2000/svg">
<mask id="mask0" mask-type="alpha" maskUnits="userSpaceOnUse" x="0" y="0" width="110" height="31">
<rect width="110" height="31" fill="#C4C4C4"/>
</mask>
<g mask="url(#mask0)">
<path d="M57.4675 11.3856C57.957 11.9875 58.0434 12.8186 57.7267 13.9364L55.7114 21.0445H52.746L52.7172 20.2993C52.055 20.6719 50.8458 21.2452 49.2912 21.2452C47.9381 21.2452 46.9592 20.9012 46.441 20.2707C46.0955 19.8407 45.9516 19.2962 46.0091 18.6656C46.0379 18.379 46.0667 18.0924 46.1819 17.7484C46.8153 15.5128 48.9457 14.3377 52.3141 14.3377H54.1855L54.387 13.6785C54.4158 13.5638 54.4446 13.4492 54.4446 13.3346C54.4734 13.1626 54.4158 13.0766 54.387 12.9906C54.2143 12.7613 53.5809 12.7327 52.9187 12.7327C51.5368 12.7327 49.4927 13.1626 49.0897 13.2486L48.5714 13.3632L49.2624 10.9556L49.4639 10.8983C49.5503 10.8697 51.7096 10.3538 53.9264 10.3538C55.1643 10.3251 56.719 10.4684 57.4675 11.3856ZM52.746 16.1434C50.6443 16.1721 49.8958 16.5733 49.5791 17.6911C49.5215 17.8631 49.4927 18.0351 49.4927 18.1784C49.4639 18.4077 49.5215 18.551 49.6079 18.6656C49.7518 18.8376 50.0685 18.9236 50.6155 18.9236C51.6232 18.9236 52.6596 18.4363 53.0051 18.2643L53.6097 16.1147L52.746 16.1434Z" fill="white"/>
<path d="M69.906 11.5002C70.6545 12.4174 70.7409 13.8505 70.1939 15.7708C69.215 19.2675 66.6239 21.1879 62.9964 21.1879C62.1902 21.1879 61.4417 21.0159 60.9811 20.8726L59.9446 24.5413H56.4898L60.4628 10.5258H63.1403L63.2555 11.271C63.9176 10.8984 65.0692 10.3538 66.5375 10.3538C67.574 10.3251 69.0711 10.4684 69.906 11.5002ZM66.7679 15.6562C67.1709 14.2231 67.1997 13.3632 66.883 12.962C66.6527 12.6754 66.1921 12.6181 65.5875 12.6181C64.6086 12.6181 63.5434 13.048 63.1691 13.2199L61.6144 18.7516C61.9887 18.8376 62.7085 18.9809 63.3706 18.9809C64.551 18.9809 65.9329 18.5797 66.7679 15.6562Z" fill="white"/>
<path d="M99.3861 11.5862C99.8467 12.1881 100.048 12.962 99.9907 13.9365C99.9619 14.5097 99.8179 15.1403 99.6164 15.8281L99.3285 16.7453H92.0734C92.0447 16.9173 92.0159 17.0892 92.0159 17.2325C91.9871 17.6625 92.0734 18.0351 92.275 18.2357C92.6492 18.6943 93.4266 18.7516 94.0599 18.7516C94.7509 18.7516 95.6722 18.637 96.4207 18.4937C97.1693 18.379 97.7163 18.2357 97.7451 18.2357L98.2633 18.1211L97.5723 20.5573L97.342 20.6146C97.3132 20.6433 96.8238 20.7579 96.104 20.8726C95.3843 20.9872 94.4342 21.1305 93.4841 21.1305C92.0159 21.1305 90.2021 20.9586 89.252 19.7834C88.5035 18.8663 88.4171 17.4618 88.9353 15.6275C90.2597 10.9557 93.916 10.2678 95.9601 10.2678C97.5723 10.3251 98.7239 10.755 99.3861 11.5862ZM92.6492 14.739H96.5071C96.5935 14.3664 96.6798 14.0511 96.6798 13.7645C96.7086 13.2773 96.651 12.962 96.4783 12.79C96.3056 12.5607 95.9601 12.4461 95.4419 12.4461C94.06 12.4461 93.1963 13.1339 92.6492 14.739Z" fill="white"/>
<path d="M45.7511 11.2996C46.2118 11.8729 46.2693 12.6754 45.9814 13.7072L43.9086 21.0446H40.4538L42.5554 13.6212C42.613 13.3346 42.613 13.1626 42.5266 13.0766C42.3539 12.876 41.8933 12.8474 41.4038 12.8474C40.1371 12.8474 38.6976 13.4206 38.2369 13.5926L36.1353 21.0446H32.6805L35.6458 10.5544H38.4097L38.5536 11.5003C39.3597 11.1277 41.1159 10.3538 42.9009 10.3538C44.3116 10.3825 45.2329 10.6977 45.7511 11.2996Z" fill="white"/>
<path d="M80.444 10.7837L80.7319 10.8696L80.0698 13.1626L79.7243 13.0766C79.7243 13.0766 79.2924 12.9619 78.7454 12.876C78.1984 12.7613 77.5075 12.6753 76.9317 12.6753C75.3194 12.6753 75.0027 13.1052 74.9164 13.4778C74.8012 13.9078 75.0891 14.0797 75.924 14.3377L76.0392 14.3663L77.1908 14.7103C77.3635 14.7676 77.5938 14.8536 77.8817 14.9682C78.1408 15.0829 78.4575 15.2549 78.6878 15.5128C79.2061 16.0001 79.5228 16.7453 79.2061 17.8917C78.3712 20.8439 75.377 21.1591 73.2465 21.1591C71.7207 21.1591 70.1084 20.7292 70.0508 20.7292L69.7629 20.6719L70.4539 18.2643L70.7994 18.3503C70.8282 18.3503 71.2888 18.465 71.8934 18.6083C72.498 18.7516 73.2177 18.8376 73.6784 18.8376C75.0891 18.8376 75.6937 18.5509 75.8664 17.9204C76.0104 17.4331 75.7513 17.2898 74.8012 16.9459L73.7072 16.5733C73.5056 16.516 73.2753 16.4013 72.9874 16.2867C72.6995 16.1434 72.4116 15.9714 72.1525 15.7421C71.6343 15.2549 71.2888 14.567 71.5767 13.5065C72.1525 11.5002 74.2254 10.3537 77.2771 10.3537C79.0621 10.3251 80.3577 10.755 80.444 10.7837Z" fill="white"/>
<path d="M109.551 10.5257L108.773 13.2772L108.428 13.2199C108.428 13.2199 107.564 13.0479 106.815 13.0479C106.009 13.0479 105.347 13.3632 105.117 13.5065L102.986 21.0445H99.5316L102.497 10.5543H105.261L105.29 11.2996C105.837 10.8696 106.758 10.3824 107.938 10.3824C108.6 10.3824 109.176 10.497 109.205 10.497L109.551 10.5257Z" fill="white"/>
<path d="M87.0643 10.5257H90.0585L89.0508 12.6753H86.4885L84.8763 18.4077C84.8475 18.4936 84.8475 18.5796 84.8475 18.6083C84.8475 18.6943 84.8763 18.7229 84.8763 18.7516C84.9051 18.7803 84.9914 18.8089 85.1354 18.8089C85.2505 18.8376 85.3657 18.8376 85.4233 18.8376C85.74 18.8376 86.3158 18.7516 86.7764 18.6656C87.2658 18.5796 87.6689 18.4936 87.6689 18.4936L88.1871 18.379L87.525 20.7579L87.3234 20.8152C87.2658 20.8439 85.7976 21.1878 84.3005 21.1878C83.4656 21.1878 82.2852 21.1018 81.7094 20.3853C81.4215 20.0414 81.3351 19.6114 81.3639 19.0669C81.3927 18.8089 81.4215 18.551 81.5366 18.2357L83.1201 12.6467H81.2775L81.8821 10.4971H83.7535C83.8686 10.1818 84.2717 9.23595 84.4156 8.40476L87.8416 7.74555L87.8129 7.80287C87.4962 9.03532 87.1795 10.1531 87.0643 10.5257Z" fill="white"/>
<path d="M19.0047 22.5349C18.141 23.3661 17.0758 23.9966 15.9242 24.3979C14.7726 24.0253 13.7362 23.3661 12.8725 22.5349H19.0047Z" fill="white"/>
<path d="M10.1678 10.3823C8.95863 9.37919 7.51913 8.60533 5.93568 8.17541V17.6337V18.0063C5.93568 23.5094 10.3981 27.9232 15.9546 27.9232C21.5111 27.9232 25.9735 23.5094 25.9735 18.0063V17.5191V8.17541C24.3901 8.60533 22.9506 9.35053 21.7414 10.3823C20.1004 9.23588 18.1426 8.54801 15.9834 8.54801C13.7953 8.57667 11.78 9.23588 10.1678 10.3823ZM10.1966 7.51619C11.8952 6.62768 13.8529 6.14044 15.9546 6.14044C18.0275 6.14044 19.9852 6.65634 21.6838 7.51619C22.0869 7.25823 22.5187 7.02894 22.9218 6.82831C21.0792 5.13728 18.6321 4.10546 15.9546 4.10546C13.2483 4.10546 10.8012 5.13728 8.95863 6.82831C9.3329 7.02894 9.79354 7.2869 10.1966 7.51619ZM6.54027 5.91114C8.84347 3.36026 12.1831 1.72655 15.9258 1.72655C19.6685 1.72655 23.0082 3.3316 25.3113 5.91114C26.2902 5.65318 27.3266 5.48122 28.3631 5.48122V9.69447C29.9753 10.6976 31.0406 12.4746 31.0406 14.5096C31.0406 16.5446 29.9753 18.3216 28.3343 19.3248L28.3055 19.4394C27.6433 25.6303 22.2884 30.3595 15.8394 30.3595C9.39048 30.3595 4.09312 25.5443 3.43095 19.3248C1.81871 18.3216 0.753479 16.5159 0.753479 14.5096C0.753479 12.4746 1.81871 10.6976 3.43095 9.69447V5.48122C4.52497 5.50988 5.56141 5.65318 6.54027 5.91114Z" fill="white"/>
<path d="M19.0322 18.0063C20.702 17.8057 23.4947 17.8344 23.4947 17.8344C23.4371 18.3216 23.4947 19.812 21.8824 20.7005C21.6233 20.8725 20.9611 21.0731 20.3278 21.1018C18.7731 21.1591 16.5851 21.1878 16.5851 21.1878C16.9881 19.4681 17.6503 18.1783 19.0322 18.0063Z" fill="white"/>
<path d="M12.8148 18.0071C14.1967 18.179 14.8589 19.4688 15.2331 21.1885C15.2331 21.1885 13.0451 21.1598 11.4904 21.1025C10.8571 21.0739 10.1949 20.8446 9.93578 20.7013C8.32354 19.7841 8.38113 18.3223 8.32355 17.8351C8.32355 17.8351 11.145 17.8351 12.8148 18.0071Z" fill="white"/>
<path d="M18.8625 25.8882C18.0276 26.4042 17.0199 26.6908 15.9259 26.6908C14.8319 26.6908 13.8243 26.4042 12.9893 25.8882C12.9893 25.8882 13.0469 25.5443 13.2197 25.315C13.4212 24.9997 13.5939 24.9138 13.5939 24.9138C14.3137 25.1144 15.091 25.229 15.9259 25.229C16.732 25.229 17.5382 25.1144 18.2579 24.9138C18.2579 24.9138 18.4882 25.0284 18.6898 25.3437C18.8337 25.659 18.8625 25.8882 18.8625 25.8882Z" fill="white"/>
<path d="M39.6235 0.92926C40.319 0.92926 40.8513 1.07693 41.2214 1.37186C41.5915 1.66679 41.7762 2.07828 41.7762 2.60591C41.7762 2.96348 41.7148 3.27251 41.5928 3.53342C41.4703 3.79434 41.295 4.00879 41.0669 4.17596C40.8387 4.34354 40.565 4.46674 40.2449 4.54597C39.9249 4.62561 39.5678 4.66502 39.1729 4.66502H38.4136L38.013 6.95434H36.6363L37.6795 0.92926H39.6235ZM39.1981 3.54172C39.5596 3.54172 39.8476 3.48323 40.0619 3.36625C40.2759 3.24928 40.3832 3.04229 40.3832 2.7457C40.3832 2.61462 40.3596 2.5047 40.3125 2.41635C40.2653 2.32799 40.1998 2.25789 40.1164 2.20645C40.033 2.15502 39.933 2.11934 39.8159 2.09943C39.6987 2.07952 39.571 2.06957 39.4319 2.06957H38.8646L38.6059 3.54172H39.1981Z" fill="white"/>
<path d="M43.4789 7.07399C43.1784 7.07399 42.899 7.03126 42.6403 6.94622C42.3816 6.86119 42.1592 6.73757 41.9729 6.57579C41.7866 6.41401 41.639 6.21822 41.5308 5.98841C41.4222 5.7586 41.3681 5.49892 41.3681 5.20979C41.3681 4.85802 41.4267 4.52327 41.5434 4.20551C41.6601 3.88776 41.8285 3.60983 42.0481 3.37131C42.2678 3.13279 42.5333 2.94281 42.8449 2.80094C43.1564 2.65907 43.5094 2.58813 43.9047 2.58813C44.2106 2.58813 44.4945 2.63086 44.756 2.7159C45.0175 2.80094 45.2428 2.92455 45.4319 3.08592C45.621 3.2477 45.7699 3.44349 45.8785 3.6733C45.9871 3.90311 46.0412 4.16279 46.0412 4.45192C46.0412 4.80949 45.9826 5.14715 45.8659 5.46449C45.7492 5.78224 45.5791 6.06017 45.3567 6.29869C45.1342 6.53721 44.8658 6.72554 44.5514 6.8645C44.237 7.0043 43.8795 7.07399 43.4789 7.07399ZM44.7222 4.59752C44.7222 4.34199 44.6458 4.1296 44.4928 3.95911C44.3399 3.78904 44.1244 3.704 43.8462 3.704C43.668 3.704 43.5066 3.74092 43.3622 3.81475C43.2174 3.88859 43.0954 3.98773 42.995 4.11259C42.8949 4.23745 42.8168 4.38223 42.7615 4.5465C42.7058 4.71118 42.6781 4.88416 42.6781 5.06585C42.6781 5.32096 42.7534 5.53252 42.9034 5.69969C43.0535 5.86728 43.2678 5.95066 43.546 5.95066C43.7242 5.95066 43.8852 5.9154 44.03 5.84446C44.1744 5.77353 44.2984 5.67563 44.4013 5.55077C44.5042 5.42591 44.5835 5.28155 44.6393 5.11687C44.6942 4.95177 44.7222 4.77879 44.7222 4.59752Z" fill="white"/>
<path d="M51.598 6.95495H50.2547L49.946 4.29102H49.9293L48.5774 6.95495H47.2341L46.6667 2.7168H48.0601L48.2602 5.42304H48.2854L49.5706 2.7168H50.9139L51.1645 5.42304H51.1893L52.4659 2.7168H53.8678L51.598 6.95495Z" fill="white"/>
<path d="M54.9859 5.20167C54.9802 5.22448 54.9774 5.24979 54.9774 5.27841C54.9774 5.39747 55.0038 5.50409 55.0567 5.59743C55.1096 5.69118 55.1791 5.77042 55.2653 5.83596C55.3515 5.90109 55.4487 5.95087 55.5573 5.98489C55.6659 6.01891 55.7786 6.03591 55.8953 6.03591C56.1068 6.03591 56.2931 5.99609 56.4545 5.91685C56.616 5.83762 56.7604 5.72976 56.8885 5.59328L57.7312 6.26574C57.464 6.55529 57.1667 6.76354 56.8385 6.89132C56.5103 7.01909 56.1568 7.08297 55.7786 7.08297C55.4894 7.08297 55.221 7.0419 54.9733 6.95976C54.7256 6.87763 54.5101 6.75566 54.3266 6.59387C54.1432 6.43209 53.9984 6.23213 53.8927 5.99401C53.7869 5.7559 53.7341 5.48335 53.7341 5.17678C53.7341 4.81379 53.7967 4.47445 53.922 4.15959C54.0472 3.84472 54.2197 3.57093 54.4393 3.3382C54.6589 3.10548 54.9217 2.92253 55.2279 2.78937C55.5337 2.65621 55.8705 2.58942 56.2378 2.58942C56.5102 2.58942 56.7592 2.62924 56.9845 2.70848C57.2098 2.78813 57.403 2.90304 57.5644 3.05321C57.7259 3.2038 57.8508 3.38923 57.9398 3.61075C58.0289 3.83186 58.0732 4.08741 58.0732 4.37697C58.0732 4.47902 58.0635 4.60803 58.0439 4.76401C58.0244 4.91999 57.998 5.06602 57.9646 5.2025H54.9859V5.20167ZM56.8804 4.36784C56.8856 4.33963 56.8885 4.31142 56.8885 4.2828C56.8885 4.25459 56.8885 4.22596 56.8885 4.19775C56.8885 4.01066 56.823 3.85468 56.6925 3.72981C56.5615 3.60495 56.374 3.54272 56.1292 3.54272C55.9791 3.54272 55.8441 3.56969 55.7245 3.62361C55.6049 3.67754 55.5004 3.74433 55.4117 3.82357C55.3227 3.90322 55.2503 3.99116 55.195 4.08741C55.1392 4.18406 55.1002 4.2774 55.0782 4.36825H56.8804V4.36784Z" fill="white"/>
<path d="M60.4055 3.3377C60.5389 3.12199 60.6988 2.94611 60.8855 2.81005C61.0718 2.67399 61.2955 2.60596 61.5575 2.60596C61.6075 2.60596 61.6587 2.60886 61.712 2.61425C61.7649 2.62006 61.808 2.62836 61.8414 2.63997L61.6246 3.84834C61.5632 3.83134 61.505 3.82014 61.4493 3.81433C61.3935 3.80894 61.3406 3.80562 61.2906 3.80562C61.0958 3.80562 60.9318 3.83963 60.7984 3.90766C60.665 3.97569 60.5552 4.05949 60.4689 4.15863C60.3827 4.25777 60.3189 4.36438 60.277 4.47763C60.2351 4.59129 60.2062 4.69043 60.1895 4.77547L59.8141 6.9541H58.4786L59.0713 3.5924C59.0937 3.48455 59.1173 3.34558 59.1421 3.17551C59.1673 3.00543 59.1852 2.85195 59.1962 2.71588H60.4649C60.4649 2.74451 60.462 2.78557 60.4567 2.83909C60.451 2.89301 60.4441 2.94984 60.436 3.00916C60.4279 3.0689 60.4193 3.12822 60.4112 3.18795C60.4026 3.24768 60.3957 3.29746 60.3904 3.33687H60.4055V3.3377Z" fill="white"/>
<path d="M62.8359 5.20167C62.8302 5.22448 62.8274 5.24979 62.8274 5.27841C62.8274 5.39747 62.8538 5.50409 62.9067 5.59743C62.9596 5.69118 63.0291 5.77042 63.1153 5.83596C63.2016 5.90109 63.2988 5.95087 63.4074 5.98489C63.5159 6.01891 63.6286 6.03591 63.7453 6.03591C63.9568 6.03591 64.1431 5.99609 64.3045 5.91685C64.466 5.83762 64.6104 5.72976 64.7385 5.59328L65.5812 6.26574C65.314 6.55529 65.0167 6.76354 64.6885 6.89132C64.3603 7.01909 64.0068 7.08297 63.6286 7.08297C63.3394 7.08297 63.071 7.0419 62.8233 6.95976C62.5756 6.87763 62.3601 6.75566 62.1767 6.59387C61.9932 6.43209 61.8485 6.23213 61.7427 5.99401C61.637 5.7559 61.5841 5.48335 61.5841 5.17678C61.5841 4.81379 61.6467 4.47445 61.772 4.15959C61.8973 3.84472 62.0697 3.57093 62.2893 3.3382C62.5089 3.10548 62.7717 2.92253 63.0779 2.78937C63.3838 2.65621 63.7205 2.58942 64.0878 2.58942C64.3603 2.58942 64.6092 2.62924 64.8345 2.70848C65.0598 2.78813 65.253 2.90304 65.4144 3.05321C65.5759 3.2038 65.7008 3.38923 65.7898 3.61075C65.8789 3.83186 65.9232 4.08741 65.9232 4.37697C65.9232 4.47902 65.9135 4.60803 65.8939 4.76401C65.8744 4.91999 65.848 5.06602 65.8146 5.2025H62.8359V5.20167ZM64.73 4.36784C64.7356 4.33963 64.7381 4.31142 64.7381 4.2828C64.7381 4.25459 64.7381 4.22596 64.7381 4.19775C64.7381 4.01066 64.6726 3.85468 64.5421 3.72981C64.4111 3.60495 64.2236 3.54272 63.9788 3.54272C63.8287 3.54272 63.6937 3.56969 63.5741 3.62361C63.4545 3.67754 63.35 3.74433 63.2613 3.82357C63.1723 3.90322 63.0999 3.99116 63.0446 4.08741C62.9889 4.18406 62.9498 4.2774 62.9279 4.36825H64.73V4.36784Z" fill="white"/>
<path d="M70.3844 0.520813H71.7197L70.6016 6.95503H69.375L69.4751 6.37636H69.4502C69.3055 6.59206 69.111 6.75923 68.8662 6.8787C68.6214 6.99775 68.346 7.05749 68.0402 7.05749C67.773 7.05749 67.5326 7.01186 67.3183 6.92143C67.104 6.83058 66.9234 6.70448 66.7757 6.5427C66.6285 6.38092 66.5159 6.18969 66.4378 5.96818C66.3597 5.74708 66.321 5.50317 66.321 5.23644C66.321 4.87348 66.378 4.53291 66.4923 4.21517C66.6061 3.89742 66.7648 3.61949 66.9677 3.38097C67.1707 3.14287 67.4126 2.95412 67.6937 2.81516C67.9743 2.6762 68.2818 2.60651 68.6157 2.60651C68.9215 2.60651 69.1859 2.66624 69.4083 2.78529C69.6308 2.90435 69.7976 3.06322 69.909 3.26192H69.9257L70.3844 0.520813ZM67.6477 5.05683C67.6477 5.31235 67.7201 5.52474 67.8645 5.69523C68.0093 5.8653 68.2232 5.95034 68.5071 5.95034C68.6738 5.95034 68.8296 5.91508 68.9744 5.84415C69.1192 5.77321 69.244 5.67532 69.3498 5.55046C69.4555 5.4256 69.5377 5.28124 69.5958 5.11656C69.6544 4.95188 69.6833 4.7789 69.6833 4.59721C69.6833 4.33629 69.6052 4.12183 69.4494 3.95466C69.2937 3.78749 69.0822 3.7037 68.8154 3.7037C68.6372 3.7037 68.4762 3.73937 68.3314 3.80989C68.1866 3.88082 68.0642 3.97748 67.9641 4.09943C67.8641 4.22139 67.786 4.3645 67.7303 4.52918C67.6754 4.69386 67.6477 4.86975 67.6477 5.05683Z" fill="white"/>
<path d="M75.2845 3.26114C75.4293 3.06244 75.6196 2.90357 75.8559 2.78451C76.0922 2.66546 76.3439 2.60572 76.6111 2.60572C76.8783 2.60572 77.1187 2.65135 77.333 2.74178C77.547 2.83263 77.728 2.95874 77.8756 3.12052C78.0228 3.2823 78.1355 3.47519 78.2136 3.6992C78.2912 3.92362 78.3303 4.16588 78.3303 4.4268C78.3303 4.78977 78.2733 5.132 78.1591 5.45225C78.0448 5.77291 77.8849 6.05208 77.6791 6.29061C77.4734 6.52913 77.2314 6.71622 76.9532 6.85228C76.675 6.98834 76.3692 7.05637 76.0352 7.05637C75.7404 7.05637 75.4691 6.99374 75.2218 6.86929C74.9742 6.74443 74.7867 6.57144 74.6586 6.35034H74.6419L74.5418 6.95474H73.3071L74.4166 0.520813H75.7599L75.2678 3.26114H75.2845ZM77.0036 4.60601C77.0036 4.35047 76.9312 4.13642 76.7868 3.96344C76.6421 3.79046 76.4281 3.70376 76.1442 3.70376C75.9775 3.70376 75.8213 3.74068 75.6769 3.81452C75.5322 3.88836 75.4085 3.9875 75.3056 4.11236C75.2027 4.23723 75.1206 4.382 75.0596 4.54627C74.9982 4.71096 74.9676 4.88394 74.9676 5.06563C74.9676 5.32656 75.0453 5.54102 75.2011 5.70819C75.3569 5.87578 75.5712 5.95916 75.8437 5.95916C76.0218 5.95916 76.1817 5.9239 76.3236 5.85255C76.4655 5.78162 76.5863 5.68538 76.6864 5.56301C76.7864 5.44105 76.8645 5.29793 76.9198 5.13325C76.9756 4.96939 77.0036 4.79309 77.0036 4.60601Z" fill="white"/>
<path d="M80.9567 7.59294C80.8342 7.81404 80.7134 8.01274 80.5939 8.18862C80.4743 8.3645 80.3433 8.51218 80.2018 8.63123C80.0599 8.75029 79.8972 8.84113 79.7138 8.90336C79.5303 8.96558 79.316 8.99711 79.0712 8.99711C78.8097 8.99711 78.5819 8.96599 78.3871 8.90336L78.5872 7.78002C78.7096 7.83104 78.8402 7.85676 78.9792 7.85676C79.1741 7.85676 79.3258 7.80698 79.4339 7.70784C79.5425 7.6087 79.6467 7.46808 79.7467 7.28639L79.9468 6.93752L78.9874 2.71631H80.4475L80.8647 5.49104H80.8814L82.2581 2.71631H83.6767L80.9567 7.59294Z" fill="white"/>
</g>
</svg>
